<svg xmlns="http://www.w3.org/2000/svg" viewBox="0 0 600 800" role="img" aria-labelledby="t d"><title id="t">终止采样控制室手机视图</title><desc id="d">控制、信号和采样三个记录屏纵向排列。</desc><rect width="600" height="800" fill="#09110d"/><g transform="translate(45 45)" font-family="monospace"><g><rect width="510" height="190" rx="8" fill="#0c1510" stroke="#83b99a"/><text x="22" y="35" fill="#b3d898" font-size="17">01 / CONTROL</text><rect x="40" y="65" width="220" height="65" fill="none" stroke="#83b99a" stroke-opacity=".55"/><circle cx="425" cy="98" r="25" fill="#dca97c"/><path d="M55 155H455" stroke="#b3d898" stroke-width="5"/></g><g transform="translate(0 220)"><rect width="510" height="190" rx="8" fill="#0c1510" stroke="#83b99a"/><text x="22" y="35" fill="#b3d898" font-size="17">02 / SIGNAL</text><path d="M45 108h65l38-30 50 60 45-80 85 50 110-18" fill="none" stroke="#dca97c" stroke-width="4"/><path d="M45 155H455" stroke="#83b99a" stroke-opacity=".45"/></g><g transform="translate(0 440)"><rect width="510" height="190" rx="8" fill="#0c1510" stroke="#83b99a"/><text x="22" y="35" fill="#b3d898" font-size="17">03 / SAMPLES</text><path d="M55 150V60M55 150H455" stroke="#83b99a" stroke-opacity=".5"/><path d="M95 130l75-35 75-45 80 55 90-25" fill="none" stroke="#dca97c" stroke-width="4"/><g fill="#b3d898"><circle cx="95" cy="130" r="7"/><circle cx="170" cy="95" r="7"/><circle cx="245" cy="50" r="7"/><circle cx="325" cy="105" r="7"/><circle cx="415" cy="80" r="7"/></g></g></g><text x="45" y="735" fill="#dcebd5" font-family="Georgia,serif" font-size="22">C60 · TERMINAL LAB</text></svg>
