<svg xmlns="http://www.w3.org/2000/svg" viewBox="0 0 1200 720" role="img" aria-labelledby="title desc">
  <title id="title">地下交换机房的单次响铃</title><desc id="desc">暗绿色交换机柜、孤立电话手柄和一枚短暂亮起的信号灯。</desc>
  <defs><linearGradient id="bg" x1="0" x2="1" y1="0" y2="1"><stop stop-color="#17251f"/><stop offset="1" stop-color="#080d0b"/></linearGradient><filter id="glow"><feGaussianBlur stdDeviation="7" result="b"/><feMerge><feMergeNode in="b"/><feMergeNode in="SourceGraphic"/></feMerge></filter></defs>
  <rect width="1200" height="720" fill="url(#bg)"/><path d="M0 510h1200v210H0z" fill="#060a08"/><g stroke="#4f7663" fill="#1c382b" stroke-width="4"><rect x="130" y="140" width="230" height="360"/><rect x="410" y="110" width="280" height="390"/><rect x="740" y="150" width="260" height="350"/></g><g fill="#9dd3ad" filter="url(#glow)"><circle cx="190" cy="205" r="8"/><circle cx="240" cy="205" r="8"/><circle cx="460" cy="180" r="8"/><circle cx="530" cy="180" r="8"/><circle cx="820" cy="220" r="8"/></g><path d="M300 540c75-95 170-110 245-15" fill="none" stroke="#a2d6ae" stroke-width="8" opacity=".65"/><path d="M545 510c-8 62 65 62 80 0" fill="none" stroke="#9dcfb0" stroke-width="11"/><circle cx="585" cy="474" r="15" fill="#c2f0c9" filter="url(#glow)"/><text x="54" y="78" fill="#d4e7d8" font-family="serif" font-size="30" letter-spacing="5">TELEGRAPH ROOM / 10</text><text x="56" y="112" fill="#80a993" font-family="sans-serif" font-size="15" letter-spacing="3">ONE RING, NO CALLER</text>
</svg>
