<svg xmlns="http://www.w3.org/2000/svg" viewBox="0 0 760 480" role="img" aria-labelledby="title desc"><title id="title">隔音录音室与延迟波形</title><desc id="desc">紫色控制台上显示一段早已录下、后来才恢复的波形。</desc><defs><linearGradient id="b" x1="0" x2="1"><stop stop-color="#1c1529"/><stop offset="1" stop-color="#090b13"/></linearGradient><pattern id="p" width="20" height="20" patternUnits="userSpaceOnUse"><path d="M0 10h20M10 0v20" stroke="#c8a8e8" stroke-opacity=".08"/></pattern></defs><rect width="760" height="480" fill="url(#b)"/><rect width="760" height="480" fill="url(#p)"/><rect x="70" y="100" width="620" height="230" rx="5" fill="#100f1b" stroke="#c8a8e8" stroke-opacity=".65"/><path d="M100 215h560" stroke="#c8a8e8" stroke-opacity=".25"/><path d="M100 215l18-50 18 105 18-30 18 10 18-75 18 50 18-20 18 10 18-95 18 110 18-30 18 15 18-65 18 40 18-8 18 75 18-90 18 30 18-20 18 50 18-25 18 15 18-75 18 90 18-25 18 15 18-55 18 50" fill="none" stroke="#d7b4ef" stroke-width="4"/><circle cx="580" cy="160" r="22" fill="#3d2756" stroke="#d7b4ef"/><path d="M580 146v16l10 8" stroke="#d7b4ef"/><text x="42" y="445" fill="#c8a8e8" font-family="monospace" font-size="13" letter-spacing="3">SOUND ROOM / BUFFER RECOVERY 08</text></svg>
