<svg xmlns="http://www.w3.org/2000/svg" viewBox="300 0 600 820" preserveAspectRatio="xMidYMid slice" role="img" aria-labelledby="title desc"><title id="title">绳子没有变短公开现场</title><desc id="desc">绳子两端距离没有变化，卷扬机却报告已经收回了三米。 图中以公开对象、记录与观察路径构成现场索引，文字信息可独立理解。</desc><defs><linearGradient id="bg" x1="0" y1="0" x2="1" y2="1"><stop stop-color="#071015"/><stop offset=".55" stop-color="#0c1419"/><stop offset="1" stop-color="#111217"/></linearGradient><pattern id="grid" width="40" height="40" patternUnits="userSpaceOnUse"><path d="M40 0H0V40" fill="none" stroke="#a9c6df" opacity=".055"/></pattern><filter id="glow"><feGaussianBlur stdDeviation="8" result="b"/><feMerge><feMergeNode in="b"/><feMergeNode in="SourceGraphic"/></feMerge></filter></defs><rect width="1200" height="820" fill="url(#bg)"/><rect width="1200" height="820" fill="url(#grid)"/><path d="M72 82h1056M72 536h1056" stroke="#a9c6df" opacity=".32"/><text x="82" y="54" fill="#a9c6df" font-family="system-ui,sans-serif" font-size="16" letter-spacing="4">C62 / WORKSHOP BENCH</text><text x="1118" y="54" fill="#8d938e" text-anchor="end" font-family="monospace" font-size="14">PUBLIC SCENE INDEX</text><g filter="url(#glow)"><g stroke="#a9c6df" fill="none" stroke-linecap="round" stroke-linejoin="round"><path d="M105 445H1095M145 445v72M1055 445v72" opacity=".55" stroke-width="4"/><circle cx="400" cy="294" r="116" opacity=".75" stroke-width="4"/><circle cx="400" cy="294" r="48" opacity=".9" stroke-width="7"/><path d="M516 294C640 294 678 220 788 220S942 292 1018 292M516 312C670 312 720 380 940 380" stroke-width="5"/><path d="M770 160v260M744 180h52M744 400h52" opacity=".55"/><rect x="860" y="172" width="150" height="96" rx="8" opacity=".7"/><path d="M888 238l26-30 22 18 35-37" stroke-width="4"/><path d="M172 210h106v150H172zM190 238h70M190 270h44M190 302h56" opacity=".55"/></g><text x="400" y="144" fill="#d8d2c4" opacity=".82" text-anchor="middle" font-family="system-ui,sans-serif" font-size="18">滑轮锚点</text><text x="935" y="150" fill="#d8d2c4" opacity=".82" text-anchor="middle" font-family="system-ui,sans-serif" font-size="18">绳长路径</text><text x="225" y="390" fill="#d8d2c4" opacity=".82" text-anchor="middle" font-family="system-ui,sans-serif" font-size="18">端点距离</text></g><g transform="translate(82 574)"><text fill="#ece5d4" font-family="serif" font-size="40">绳子没有变短</text><text y="42" fill="#a9c6df" font-family="system-ui,sans-serif" font-size="15" letter-spacing="2">spatial-map  ×  causal-graph</text><foreignObject x="0" y="68" width="1036" height="96"><div xmlns="http://www.w3.org/1999/xhtml" style="color:#bbb7ac;font:18px/1.55 system-ui,sans-serif">绳子两端距离没有变化，卷扬机却报告已经收回了三米。</div></foreignObject></g></svg>